<?xml version="1.0" standalone="no"?>
<!DOCTYPE svg PUBLIC "-//W3C//DTD SVG 20010904//EN"
 "http://www.w3.org/TR/2001/REC-SVG-20010904/DTD/svg10.dtd">
<svg version="1.0" xmlns="http://www.w3.org/2000/svg"
 width="512.000000pt" height="512.000000pt" viewBox="0 0 512.000000 512.000000"
 preserveAspectRatio="xMidYMid meet">

<g transform="translate(0.000000,512.000000) scale(0.100000,-0.100000)"
fill="#000000" stroke="none">
<path d="M0 2560 l0 -2560 2560 0 2560 0 0 2560 0 2560 -2560 0 -2560 0 0
-2560z m3235 755 c194 -49 317 -132 377 -252 59 -120 50 -286 -27 -501 -58
-161 -127 -242 -243 -284 -48 -18 -204 -23 -267 -9 -36 8 -36 14 -3 136 l25
89 79 -2 c91 -3 118 7 151 57 31 46 81 205 89 284 9 85 0 129 -34 162 -90 91
-376 153 -450 98 -41 -30 -68 -76 -96 -161 -32 -100 -46 -171 -46 -234 0 -48
3 -54 45 -95 l45 -43 -10 -47 c-14 -62 -40 -146 -50 -156 -11 -12 -98 35 -152
82 -27 24 -59 66 -75 99 -26 53 -28 65 -28 177 1 99 5 137 28 218 99 361 287
472 642 382z m-1208 -456 c43 -6 79 -12 81 -14 2 -2 -10 -44 -27 -95 -17 -50
-31 -98 -31 -107 0 -13 -10 -15 -59 -10 -77 7 -136 -5 -168 -34 -55 -51 -123
-256 -123 -372 0 -55 3 -62 38 -97 59 -59 248 -120 372 -120 83 0 112 19 147
98 40 90 76 249 71 315 -4 48 -9 62 -37 91 -33 34 -34 35 -22 83 19 79 53 163
65 163 22 0 100 -56 135 -95 110 -126 119 -322 27 -579 -60 -167 -136 -254
-255 -292 -75 -24 -243 -15 -368 20 -207 57 -336 149 -382 271 -60 156 21 512
148 656 64 73 174 122 288 128 12 0 57 -4 100 -10z"/>
</g>
</svg>
